<svg width="112" height="48" viewBox="0 0 112 48" fill="none" xmlns="http://www.w3.org/2000/svg">
<path d="M106.059 36.2396L100.029 27.7489L93.9996 36.2396H88.291L96.6932 24.0497L88.4393 11.5866H94.4197L100.005 20.1022L105.565 11.5866H111.545L103.291 24.0497L111.743 36.2396H106.059Z" fill="#DFDDCD"/>
<path d="M75.7872 22.5104V22.5601C75.7872 24.1738 76.1084 25.6883 76.7015 27.0786H83.3245C82.0888 29.8095 79.3457 31.7212 76.1826 31.7212C71.8579 31.7212 68.324 28.1958 68.324 23.8262C68.324 19.4815 71.8332 15.9313 76.1826 15.9313C79.1975 15.9313 81.817 17.6444 83.1267 20.127L87.6985 18.265C85.6474 13.9452 81.2486 10.9659 76.1826 10.9659C69.1148 10.9659 63.4062 16.7258 63.4062 23.8014C63.4062 30.9019 69.1395 36.6369 76.1826 36.6369C80.0377 36.6369 82.7314 35.0976 84.4118 32.6398L84.733 36.19H88.5635V22.5104H75.7872Z" fill="#DFDDCD"/>
<path d="M48.9248 22.5104V22.56C48.9248 24.1738 49.2461 25.6882 49.8392 27.0785H56.4621C55.2265 29.8095 52.4834 31.7211 49.3203 31.7211C46.8737 31.7211 44.699 30.6039 43.241 28.8412C42.8703 30.6536 42.3019 32.4163 41.5605 34.0549C43.7105 35.6934 46.3795 36.6865 49.2955 36.6865C53.1507 36.6865 55.8443 35.1472 57.5248 32.6894L57.846 36.2396H61.6765V22.5104H48.9248Z" fill="#DFDDCD"/>
<path d="M43.2156 18.8859C44.6489 17.0984 46.8483 15.9564 49.3196 15.9564C52.3345 15.9564 54.954 17.6694 56.2638 20.1521L60.8356 18.2901C58.7844 13.9702 54.3856 10.991 49.3196 10.991C46.3788 10.991 43.6851 11.9841 41.5352 13.6475C42.2765 15.3109 42.8449 17.0488 43.2156 18.8859Z" fill="#DFDDCD"/>
<path d="M20.6371 14.2653C20.5889 14.2653 20.5166 14.241 20.4684 14.241C20.4201 14.241 20.3719 14.241 20.3478 14.2167C20.2996 14.2167 20.2514 14.2167 20.2273 14.2167C20.2032 14.2167 20.155 14.2167 20.1309 14.2167C20.0827 14.2167 20.0104 14.2167 19.9622 14.2167C19.9381 14.2167 19.8898 14.2167 19.8657 14.2167H19.8416C19.7934 14.2167 19.7452 14.2167 19.697 14.2167C19.6247 14.2167 19.5283 14.2167 19.4559 14.2167C19.4559 14.2167 19.4559 14.2167 19.4318 14.2167V15.4319V24.1576H13.0923V24.1819C13.0923 25.0569 13.261 25.8833 13.5985 26.6368H16.9731V31.1819C14.1047 30.1611 12.0316 27.3903 12.0316 24.1333C12.0316 20.366 14.7796 17.2549 18.3712 16.7444V14.2653V14.2167C13.4056 14.7514 9.54883 18.9806 9.54883 24.109C9.54883 29.1889 13.3092 33.3694 18.2025 34.0014C18.2507 34.0014 18.323 34.0257 18.3712 34.0257C18.4194 34.0257 18.4676 34.0257 18.4917 34.05C18.54 34.05 18.5882 34.05 18.6123 34.05C18.6364 34.05 18.6846 34.05 18.7087 34.05C18.7569 34.05 18.8292 34.05 18.8774 34.05C18.9015 34.05 18.9497 34.05 18.9738 34.05H18.998C19.0462 34.05 19.0944 34.05 19.1426 34.05C19.239 34.05 19.3113 34.05 19.4077 34.05V24.0847H25.7473V24.0604C25.7473 23.1854 25.5786 22.359 25.2411 21.6056H21.8664V17.0604C24.7349 18.0812 26.8079 20.8521 26.8079 24.109C26.8079 27.8764 24.0359 30.9875 20.4684 31.4979V33.9771V34.0014C25.434 33.4667 29.2908 29.2375 29.2908 24.109C29.2908 19.0535 25.5063 14.8729 20.6371 14.2653Z" fill="#DFDDCD"/>
<g clip-path="url(#clip0_725_1841)">
<path d="M19.2858 11.7153C20.5469 11.7153 21.7681 11.9158 22.9095 12.2766L25.5036 5.94182C23.5561 5.26023 21.4648 4.88335 19.2778 4.88335C17.0908 4.88335 14.8958 5.27626 12.9004 5.98993L15.694 12.2526C16.8354 11.8997 18.0407 11.7153 19.2778 11.7153H19.2858Z" fill="#DFDDCD"/>
<path d="M30.1258 18.3388L36.4873 15.8209C34.6515 11.9318 31.5466 8.78045 27.7153 6.87199L25.1133 13.2148C27.2444 14.3855 28.9924 16.1737 30.1179 18.3388H30.1258Z" fill="#DFDDCD"/>
<path d="M13.4924 13.1827L10.7068 6.94417C7.05911 8.80451 4.07392 11.8035 2.24609 15.4841L8.45592 18.2987C9.6053 16.0855 11.3693 14.3214 13.4844 13.1747L13.4924 13.1827Z" fill="#DFDDCD"/>
<path d="M7.05829 24C7.05829 22.8132 7.22591 21.6505 7.55316 20.5279L1.31939 17.7053C0.632956 19.6779 0.257812 21.7948 0.257812 24C0.257812 26.2051 0.640938 28.3301 1.32737 30.3027L7.50527 27.5764L7.58509 27.5443C7.24985 26.4217 7.05829 25.2349 7.05829 24Z" fill="#DFDDCD"/>
<path d="M13.5322 34.8253C11.393 33.6706 9.62907 31.8984 8.48768 29.7414L8.45575 29.7574V29.7735L8.35997 29.8136L2.25391 32.5079C4.10568 36.2366 7.13077 39.2837 10.8583 41.136L13.4284 35.0899L13.5322 34.8173V34.8253Z" fill="#DFDDCD"/>
<path d="M30.0699 29.7655C28.9285 31.9145 27.1645 33.6866 25.0254 34.8333L25.0414 34.8734L25.2648 35.4026V35.4187L27.6993 41.136C31.4188 39.2837 34.4599 36.2526 36.3116 32.5239L30.2295 29.8457L30.0539 29.7735L30.0699 29.7655Z" fill="#DFDDCD"/>
<path d="M22.8061 35.7555C21.6887 36.0923 20.5074 36.2767 19.2862 36.2767C18.065 36.2767 16.8677 36.0923 15.7502 35.7475L15.7263 35.8116L15.6305 36.0361L13.0684 42.0582C15.0159 42.7318 17.1071 43.1086 19.2862 43.1086C21.4652 43.1086 23.5484 42.7318 25.504 42.0582L22.9977 36.1724L22.8061 35.7555Z" fill="#DFDDCD"/>
<path d="M37.3737 18.0581L31.0202 20.576C31.3395 21.6665 31.5151 22.8132 31.5151 24C31.5151 25.1868 31.3315 26.4217 30.9883 27.5443L31.0681 27.5764L31.2836 27.6726L37.254 30.3027C37.9404 28.3301 38.3156 26.2132 38.3156 24C38.3156 21.9231 37.9803 19.9265 37.3737 18.0581Z" fill="#DFDDCD"/>
</g>
<defs>
<clipPath id="clip0_725_1841">
<rect width="38.0571" height="38.2333" fill="white" transform="translate(0.257812 4.88335)"/>
</clipPath>
</defs>
</svg>
